<?xml version="1.0" ?>
<!-- Uploaded to: SVG Repo, www.svgrepo.com, Generator: SVG Repo Mixer Tools -->
<svg width="800px" height="800px" viewBox="0 0 24 24" xmlns="http://www.w3.org/2000/svg">
<defs>
<style>.cls-1{fill:#231f20;}</style>
</defs>
<title/>
<g id="Card">
<path class="cls-1" d="M21,5H18V3H16V5H8V3H6V5H3A1,1,0,0,0,2,6V21a1,1,0,0,0,1,1H21a1,1,0,0,0,1-1V6A1,1,0,0,0,21,5ZM20,7V8H18V7ZM16,7V8H8V7ZM6,7V8H4V7ZM4,20V10H20V20Z"/>
<path class="cls-1" d="M16.27,11.3,12,15.69,9.72,13.35a1,1,0,0,0-1.43,1.4l3,3.08a1,1,0,0,0,1.43,0l5-5.12a1,1,0,0,0-1.43-1.4Z"/>
</g>
</svg>